<?xml version="1.0" standalone="no"?><!DOCTYPE svg PUBLIC "-//W3C//DTD SVG 1.1//EN" "http://www.w3.org/Graphics/SVG/1.1/DTD/svg11.dtd"><svg t="1524464099919" class="icon" style="" viewBox="0 0 1026 1024" version="1.1" xmlns="http://www.w3.org/2000/svg" p-id="3162" xmlns:xlink="http://www.w3.org/1999/xlink" width="32.0625" height="32"><defs><style type="text/css"></style></defs><path d="M682.5 357c-10.3-10.6-28.9-9.1-39.4 2.3L512.6 493.5l-136.4-135c-10.6-9.7-27.9-10.6-37.9-0.6-9.4 9.7-12.5 24.1-1.5 36.1L474 532.6 340.4 669.2c-10 10.2-11.5 25.2 0.2 36 12.9 11.9 30.5 6.4 39.1-2.2l132.9-134.3 142.4 135c10.3 9.3 26.7 10.8 36.3 0.2 10.9-12 8.6-23.4-2.7-35L551.3 532.8l134-141.6C695.3 380.5 690.5 364.8 682.5 357zM471.3 529.1" p-id="3163" fill="#8a8a8a"></path><path d="M931.84 512c0 231.936-187.904 419.84-419.84 419.84S92.16 743.936 92.16 512s187.904-419.84 419.84-419.84S931.84 280.064 931.84 512zM513.024 155.648c-190.464 0-358.4 167.424-358.4 357.376 0 197.632 160.256 358.4 358.4 358.4s358.4-160.256 358.4-358.4C870.912 324.096 706.048 155.648 513.024 155.648z" p-id="3164" fill="#8a8a8a"></path></svg>