<?xml version="1.0" standalone="no"?><!DOCTYPE svg PUBLIC "-//W3C//DTD SVG 1.1//EN" "http://www.w3.org/Graphics/SVG/1.1/DTD/svg11.dtd"><svg t="1524822085184" class="icon" style="" viewBox="0 0 1024 1024" version="1.1" xmlns="http://www.w3.org/2000/svg" p-id="1372" xmlns:xlink="http://www.w3.org/1999/xlink" width="32" height="32"><defs><style type="text/css"></style></defs><path d="M959.949218 410.506445c-2.354628-7.242961-8.615215-12.523221-16.153912-13.619182l-285.463544-41.47767L530.672268 96.735182c-3.370771-6.829546-10.327206-11.153014-17.943674-11.153014-7.616468 0-14.572904 4.324492-17.943674 11.153014L367.122355 355.409592 81.659835 396.887262c-7.53665 1.095961-13.799284 6.376221-16.152888 13.619182s-0.390903 15.19405 5.063319 20.511149l206.562543 201.349821-48.762587 284.308231c-1.287319 7.506974 1.797949 15.092743 7.959276 19.569708 6.161327 4.479011 14.329357 5.064342 21.071921 1.523703l255.327176-134.232191 255.32513 134.232191c2.926656 1.538029 6.123464 2.298346 9.309016 2.298346 4.148483 0 8.277524-1.289366 11.762905-3.822049 6.161327-4.476965 9.248641-12.06171 7.960299-19.569708l-48.761564-284.308231 206.562543-201.349821C960.340121 425.700495 962.302823 417.750429 959.949218 410.506445zM712.856587 611.05297c-4.715395 4.597715-6.866385 11.219529-5.754051 17.711384l43.688012 254.717286L522.039657 763.220648c-2.915399-1.531889-6.112208-2.298346-9.311063-2.298346-0.177032 0-0.354064 0.011256-0.531096 0.016373L512.197498 151.878083l0.531096-1.075495 114.372887 231.751225c2.915399 5.904477 8.5487 9.998725 15.06716 10.946306l255.752872 37.161365L712.856587 611.05297z" p-id="1373" fill="#fa9e4b"></path></svg>