<?xml version="1.0" standalone="no"?><!DOCTYPE svg PUBLIC "-//W3C//DTD SVG 1.1//EN" "http://www.w3.org/Graphics/SVG/1.1/DTD/svg11.dtd"><svg t="1524983293693" class="icon" style="" viewBox="0 0 1024 1024" version="1.1" xmlns="http://www.w3.org/2000/svg" p-id="2001" xmlns:xlink="http://www.w3.org/1999/xlink" width="32" height="32"><defs><style type="text/css"></style></defs><path d="M547.598 739.628c-34.912 30.936-68.616 60.806-98.052 90.073-30.862-30.689-66.083-61.657-102.6-93.707-100.251-88.002-213.86-187.742-213.298-269.704 0.772-110.02 48.978-175.7 129.004-175.7 52.104 0 103.405 28.357 133.862 73.998l53.96 80.844 52.132-82.05c20.317-31.875 52.744-55.604 88.634-66.521l0-65.385c-55.992 11.796-109.007 45.932-142.062 97.952-43.604-65.34-116.393-102.167-186.527-102.167-98.112 0-191.159 71.986-192.302 238.581C69.202 631.01 340.854 788.236 449.608 923.489c103.554-129.738 377.685-294.2 378.394-457.739l-63.407 0C764.071 547.712 644.11 654.04 547.598 739.628L547.598 739.628zM547.598 739.628" p-id="2002" fill="#d81e06"></path><path d="M828.044 228.992 828.044 102.679l-63.138 0 0 126.313L638.594 228.992l0 63.125 126.313 0L764.907 418.4l63.138 0L828.045 292.117l126.253 0 0-63.125L828.044 228.992zM828.044 228.992" p-id="2003" fill="#d81e06"></path></svg>