<?xml version="1.0" standalone="no"?><!DOCTYPE svg PUBLIC "-//W3C//DTD SVG 1.1//EN" "http://www.w3.org/Graphics/SVG/1.1/DTD/svg11.dtd"><svg t="1524296948490" class="icon" style="" viewBox="0 0 1024 1024" version="1.1" xmlns="http://www.w3.org/2000/svg" p-id="4557" xmlns:xlink="http://www.w3.org/1999/xlink" width="32" height="32"><defs><style type="text/css"></style></defs><path d="M1007.808 384.64c-13.952-40.768-50.88-67.136-94.016-67.136L693.12 317.504 605.824 66.752C591.808 26.176 554.88 0 512 0 469.12 0 432.192 26.176 418.176 66.752L330.88 317.504 110.208 317.504c-43.072 0-80 26.368-94.016 67.136C2.24 425.408 15.168 468.864 49.216 495.36l185.92 144.576-84.416 253.056c-10.24 30.784-5.376 63.296 13.312 89.216 31.552 43.712 96.896 54.592 140.608 21.696L512 848.32l207.296 155.52C736.896 1017.024 757.44 1024 778.752 1024c32 0 62.336-15.68 81.216-41.856 18.688-25.92 23.552-58.368 13.248-89.216l-84.352-252.992 185.856-144.576C1008.832 468.864 1021.76 425.408 1007.808 384.64zM741.632 564.672c-35.328 27.52-49.472 74.496-35.328 116.864l88.832 268.544L575.36 785.216c-36.864-27.648-89.92-27.648-126.784 0l-220.608 165.44 89.728-269.12c14.208-42.432 0-89.408-35.328-116.928L84.608 410.816 319.36 410.816c44.992 0 85.056-28.544 99.84-70.976L512 73.088 604.8 339.84c14.784 42.496 54.848 70.976 99.84 70.976l234.688 0L741.632 564.672z" p-id="4558" fill="#f69d0b"></path></svg>