<?xml version="1.0" standalone="no"?><!DOCTYPE svg PUBLIC "-//W3C//DTD SVG 1.1//EN" "http://www.w3.org/Graphics/SVG/1.1/DTD/svg11.dtd"><svg t="1524367842679" class="icon" style="" viewBox="0 0 1024 1024" version="1.1" xmlns="http://www.w3.org/2000/svg" p-id="2165" xmlns:xlink="http://www.w3.org/1999/xlink" width="32" height="32"><defs><style type="text/css"></style></defs><path d="M908.353 447.451h81.028v-415.451h-416.369v81.71h276.86l-232.435 234.097c-61.75-49.103-139.645-78.577-223.955-78.577l-4.841 0.034c-96.518 1.269-186.775 40.055-254.131 109.199-67.348 69.151-103.743 160.388-102.473 256.906 2.587 196.647 164.642 356.631 361.25 356.631l4.841-0.034c96.525-1.263 186.783-40.035 254.137-109.185 67.361-69.143 103.749-160.388 102.48-256.899-1.088-83.398-30.933-160.132-79.853-220.937l233.468-234.144v276.65zM594.222 826.25c-52.256 53.641-122.272 83.723-197.162 84.708l-3.781 0.021c-152.509 0-278.224-124.115-280.229-276.677-0.986-74.876 27.252-145.655 79.502-199.302 52.256-53.647 122.272-83.729 197.154-84.714l3.774-0.027c152.528 0 278.243 124.121 280.236 276.697 0.993 74.87-27.246 145.648-79.495 199.296z" fill="#1296db" p-id="2166"></path></svg>