<?xml version="1.0" standalone="no"?><!DOCTYPE svg PUBLIC "-//W3C//DTD SVG 1.1//EN" "http://www.w3.org/Graphics/SVG/1.1/DTD/svg11.dtd"><svg t="1523665226571" class="icon" style="" viewBox="0 0 1024 1024" version="1.1" xmlns="http://www.w3.org/2000/svg" p-id="4053" xmlns:xlink="http://www.w3.org/1999/xlink" width="32" height="32"><defs><style type="text/css"></style></defs><path d="M834.56 248.832c59.904 71.68 94.208 163.84 94.208 264.192 0 228.864-186.368 415.744-415.744 415.744-230.912 0-417.28-186.368-417.28-415.744 0-230.912 186.368-417.28 417.28-417.28 102.4 0 195.072 36.864 267.264 97.28 53.248 7.68 78.336-7.68 94.208-74.752l54.272 18.432c-19.968 66.048-51.712 101.888-94.208 112.128z m-558.592 166.4c-52.224 0-95.744 43.52-95.744 97.28 0 52.224 43.52 97.28 95.744 97.28 54.272 0 97.28-45.056 97.28-97.28 0-53.76-43.52-97.28-97.28-97.28z m237.056-235.52c-54.272 0-97.28 43.52-97.28 95.744 0 54.272 43.52 97.28 97.28 97.28 52.224 0 97.28-43.52 97.28-97.28 0.512-52.736-44.544-95.744-97.28-95.744z m-55.808 332.8c0 30.72 25.088 54.784 55.808 54.784s54.784-24.064 54.784-54.784-24.064-55.808-54.784-55.808c-30.72 0-55.808 25.088-55.808 55.808z m55.808 138.24c-54.272 0-97.28 44.032-97.28 97.28 0 54.272 43.52 97.28 97.28 97.28 52.224 0 97.28-43.52 97.28-97.28 0.512-52.736-44.544-97.28-97.28-97.28z m138.24-138.24c0 52.224 44.032 97.28 97.28 97.28 54.272 0 97.28-45.056 97.28-97.28 0-54.272-43.52-97.28-97.28-97.28-52.736 0-97.28 43.52-97.28 97.28z" fill="#e6e6e6" p-id="4054"></path></svg>