<?xml version="1.0" standalone="no"?><!DOCTYPE svg PUBLIC "-//W3C//DTD SVG 1.1//EN" "http://www.w3.org/Graphics/SVG/1.1/DTD/svg11.dtd"><svg t="1524482262038" class="icon" style="" viewBox="0 0 1024 1024" version="1.1" xmlns="http://www.w3.org/2000/svg" p-id="3129" xmlns:xlink="http://www.w3.org/1999/xlink" width="64" height="64"><defs><style type="text/css"></style></defs><path d="M504.787121 16.587353c-278.279557 0-503.868569 225.589013-503.868569 503.868569 0 278.279557 225.589013 503.868569 503.868569 503.868569s503.868569-225.589013 503.868569-503.868569C1008.65569 242.176366 783.06567 16.587353 504.787121 16.587353zM504.787121 984.015006c-256.016628 0-463.559084-207.542456-463.559084-463.559084 0-256.016628 207.542456-463.559084 463.559084-463.559084s463.559084 207.542456 463.559084 463.559084C968.346205 776.47255 760.803749 984.015006 504.787121 984.015006z" p-id="3130" fill="#ffffff"></path><path d="M813.328016 306.41457c0-12.974616-10.517753-23.492368-23.492368-23.492368-3.959399 0-7.686011 0.983551-10.959141 2.712828l-0.002015-0.004031-0.159222 0.086665c-0.05341 0.028217-0.105812 0.057441-0.159222 0.086665l-145.717782 79.351238c-0.996652 0.456505-1.954002 0.977505-2.872051 1.563-6.523082 4.174047-10.859375 11.466033-10.859375 19.785911 0 8.18081 4.18614 15.378069 10.528838 19.584364 1.123627 0.746733 2.317795 1.394708 3.567389 1.940902l142.658292 77.602814c3.905989 2.895229 8.740104 4.608382 13.974291 4.608382 12.974616 0 23.492368-10.517753 23.492368-23.492368 0-9.220795-5.313798-17.196027-13.045157-21.041551l0.002015-0.004031L689.611151 386.504479l111.300536-59.371841c0.061472-0.032248 0.122944-0.064495 0.184416-0.097751l0.059456-0.032248-0.001008-0.002015C808.410259 323.003938 813.328016 315.284672 813.328016 306.41457z" p-id="3131" fill="#ffffff"></path><path d="M376.371178 408.029744c1.248586-0.546194 2.442755-1.195176 3.567389-1.940902 6.34169-4.206295 10.528838-11.402546 10.528838-19.584364 0-8.319878-4.337301-15.611864-10.860383-19.785911-0.917041-0.585495-1.874391-1.106495-2.871043-1.563l-145.701659-79.342168c-0.063487-0.034263-0.125967-0.068526-0.189455-0.102789l-0.146122-0.079611-0.002015 0.004031c-3.272122-1.729277-6.999742-2.712828-10.958134-2.712828-12.974616 0-23.492368 10.517753-23.492368 23.492368 0 8.870102 4.917757 16.589369 12.174472 20.587062l-0.001008 0.002015 0.057441 0.03124c0.06248 0.034263 0.125967 0.066511 0.188447 0.099766l111.297513 59.370833-110.672716 59.19851 0.002015 0.004031c-7.730352 3.845525-13.045157 11.820757-13.045157 21.041551 0 12.974616 10.517753 23.492368 23.492368 23.492368 5.235194 0 10.069309-1.714161 13.975299-4.60939L376.371178 408.029744z" p-id="3132" fill="#ffffff"></path><path d="M735.081259 743.901478c-2.663449-124.911034-104.744198-225.355217-230.294137-225.355217-125.898616 0-228.19099 101.003478-230.307238 226.397218-0.030232 0.517977-0.050387 1.036962-0.050387 1.563 0 0.268058 0.012093 0.533093 0.020155 0.800143-0.003023 0.533093-0.020155 1.06417-0.020155 1.598271l0.113874 0c1.212308 13.411974 12.479817 23.921664 26.206204 23.921664 14.536608 0 26.321086-11.78347 26.321086-26.320079 0-0.447435-0.012093-0.892855-0.034263-1.334244 1.987258-96.478738 80.795325-174.08256 177.749715-174.08256 97.035009 0 175.891448 77.731804 177.756769 174.320386-0.001008 0.07558-0.006046 0.151161-0.006046 0.227749 0 0.462551 0.013101 0.922079 0.036279 1.378584 0.002015 0.247903 0.012093 0.493791 0.014108 0.741695 0.018139 0.05341 0.036279 0.104805 0.054418 0.157207 1.155874 13.458329 12.441523 24.023446 26.200158 24.023446 13.419028 0 24.483982-10.05117 26.093338-23.033848l0.209609 0c0-0.728594-0.021162-1.450134-0.027209-2.176712 0.015116-0.361778 0.027209-0.724563 0.027209-1.090372C735.144746 745.053321 735.118545 744.47488 735.081259 743.901478z" p-id="3133" fill="#ffffff"></path><path d="M504.787121 16.460378c-277.982274 0-503.330437 225.348163-503.330437 503.32943 0 277.98429 225.348163 503.330437 503.330437 503.330437s503.330437-225.346148 503.330437-503.330437C1008.117559 241.807534 782.769395 16.460378 504.787121 16.460378zM504.787121 970.571792c-248.960452 0-450.781984-201.820524-450.781984-450.781984 0-248.959444 201.821532-450.781984 450.781984-450.781984 248.96146 0 450.780977 201.82254 450.780977 450.781984C955.568098 768.751268 753.748581 970.571792 504.787121 970.571792z" p-id="3134" fill="#ffffff"></path></svg>