<?xml version="1.0" standalone="no"?><!DOCTYPE svg PUBLIC "-//W3C//DTD SVG 1.1//EN" "http://www.w3.org/Graphics/SVG/1.1/DTD/svg11.dtd"><svg t="1524367874089" class="icon" style="" viewBox="0 0 1024 1024" version="1.1" xmlns="http://www.w3.org/2000/svg" p-id="3343" xmlns:xlink="http://www.w3.org/1999/xlink" width="32" height="32"><defs><style type="text/css"></style></defs><path d="M816.985 208.714c-64.686-64.686-150.611-100.246-241.998-100.246s-177.311 35.559-241.998 100.246-100.246 150.611-100.246 241.998c0 81.678 28.399 158.864 80.464 220.516l-58.497 58.497-98.304-98.304c-10.923-10.923-29.006-10.559-40.414 0.85s-11.773 29.491-0.85 40.414l98.304 98.304-88.595 88.716c-11.408 11.408-11.408 29.855 0 41.142 11.408 11.408 29.855 11.408 41.142 0l88.837-88.837 98.304 98.304c10.923 10.923 29.006 10.559 40.414-0.85s11.773-29.491 0.85-40.414l-98.304-98.304 58.497-58.497c61.652 52.065 138.839 80.464 220.516 80.464 91.387 0 177.311-35.559 241.998-100.246 64.686-64.686 100.246-150.611 100.246-241.998-0.122-91.265-35.681-177.189-100.367-241.755zM574.988 734.701c-156.558 0-283.989-127.431-283.989-283.989s127.431-283.989 283.989-283.989 283.989 127.431 283.989 283.989-127.431 283.989-283.989 283.989z" fill="#1296db" p-id="3344"></path></svg>